<svg width="20" height="20" viewBox="0 0 20 20" fill="none" xmlns="http://www.w3.org/2000/svg">
<path d="M8.57465 3.2172L1.51632 15.0005C1.37079 15.2526 1.29379 15.5383 1.29298 15.8293C1.29216 16.1203 1.36756 16.4065 1.51167 16.6593C1.65579 16.9121 1.86359 17.1228 2.11441 17.2704C2.36523 17.418 2.65032 17.4973 2.94132 17.5005H17.058C17.349 17.4973 17.6341 17.418 17.8849 17.2704C18.1357 17.1228 18.3435 16.9121 18.4876 16.6593C18.6317 16.4065 18.7071 16.1203 18.7063 15.8293C18.7055 15.5383 18.6285 15.2526 18.483 15.0005L11.4247 3.2172C11.2761 2.97229 11.0669 2.7698 10.8173 2.62927C10.5677 2.48874 10.2861 2.41492 9.99965 2.41492C9.71321 2.41492 9.43159 2.48874 9.18199 2.62927C8.93238 2.7698 8.72321 2.97229 8.57465 3.2172V3.2172Z" stroke="#F7BE19" stroke-width="2" stroke-linecap="round" stroke-linejoin="round"/>
<path d="M10 7.50049V10.8338" stroke="#F7BE19" stroke-width="2" stroke-linecap="round" stroke-linejoin="round"/>
<path d="M10 14.1671H10.0083" stroke="#F7BE19" stroke-width="2" stroke-linecap="round" stroke-linejoin="round"/>
</svg>
