<svg width="24" height="24" viewBox="0 0 24 24" fill="none" xmlns="http://www.w3.org/2000/svg">
<path d="M12 2.00024C6.48 2.00024 2 6.48024 2 12.0002C2 17.5202 6.48 22.0002 12 22.0002C17.52 22.0002 22 17.5202 22 12.0002C22 6.48024 17.52 2.00024 12 2.00024ZM13 19.0002H11V17.0002H13V19.0002ZM15.07 11.2502L14.17 12.1702C13.45 12.9002 13 13.5002 13 15.0002H11V14.5002C11 13.4002 11.45 12.4002 12.17 11.6702L13.41 10.4102C13.78 10.0502 14 9.55024 14 9.00024C14 7.90024 13.1 7.00024 12 7.00024C10.9 7.00024 10 7.90024 10 9.00024H8C8 6.79024 9.79 5.00024 12 5.00024C14.21 5.00024 16 6.79024 16 9.00024C16 9.88024 15.64 10.6802 15.07 11.2502Z" fill="#4E5662"/>
</svg>
