<svg width="24" height="24" viewBox="0 0 24 24" fill="none" xmlns="http://www.w3.org/2000/svg">
<g clip-path="url(#clip0_6519_3401)">
<path d="M22.7344 18.9295C22.7344 19.4599 22.5237 19.9686 22.1486 20.3437C21.7735 20.7188 21.2648 20.9295 20.7344 20.9295H2.73438C2.20394 20.9295 1.69523 20.7188 1.32016 20.3437C0.945089 19.9686 0.734375 19.4599 0.734375 18.9295V7.9295C0.734375 7.39907 0.945089 6.89036 1.32016 6.51529C1.69523 6.14022 2.20394 5.9295 2.73438 5.9295H6.73438L8.73438 2.9295H14.7344L16.7344 5.9295H20.7344C21.2648 5.9295 21.7735 6.14022 22.1486 6.51529C22.5237 6.89036 22.7344 7.39907 22.7344 7.9295V18.9295Z" stroke="white" stroke-width="2" stroke-linecap="round" stroke-linejoin="round"/>
<path d="M11.7344 16.9295C13.9435 16.9295 15.7344 15.1386 15.7344 12.9295C15.7344 10.7204 13.9435 8.9295 11.7344 8.9295C9.52524 8.9295 7.73438 10.7204 7.73438 12.9295C7.73438 15.1386 9.52524 16.9295 11.7344 16.9295Z" stroke="white" stroke-width="2" stroke-linecap="round" stroke-linejoin="round"/>
</g>
<defs>
<clipPath id="clip0_6519_3401">
<rect width="24" height="24" fill="white" transform="translate(-0.265625 -0.0704956)"/>
</clipPath>
</defs>
</svg>
