<svg width="24" height="24" viewBox="0 0 24 24" fill="none" xmlns="http://www.w3.org/2000/svg">
<path fill-rule="evenodd" clip-rule="evenodd" d="M4 3C3.44772 3 3 3.44772 3 4V20C3 20.5523 3.44772 21 4 21H20C20.5523 21 21 20.5523 21 20V4C21 3.44772 20.5523 3 20 3H4ZM16.6247 6.21912C17.056 6.56413 17.1259 7.19342 16.7809 7.62469L8.78087 17.6247C8.43586 18.0559 7.80657 18.1259 7.37531 17.7809C6.94404 17.4359 6.87412 16.8066 7.21913 16.3753L15.2191 6.3753C15.5641 5.94403 16.1934 5.87411 16.6247 6.21912ZM8 9.99999C9.10457 9.99999 10 9.10456 10 7.99999C10 6.89542 9.10457 5.99999 8 5.99999C6.89543 5.99999 6 6.89542 6 7.99999C6 9.10456 6.89543 9.99999 8 9.99999ZM16 18C17.1046 18 18 17.1046 18 16C18 14.8954 17.1046 14 16 14C14.8954 14 14 14.8954 14 16C14 17.1046 14.8954 18 16 18Z" fill="#ACB4B4"/>
</svg>
