<svg width="24" height="24" viewBox="0 0 24 24" fill="none" xmlns="http://www.w3.org/2000/svg">
<path d="M16.6113 9.45294L7.61133 4.26294" stroke="#ACB4B4" stroke-width="2" stroke-linecap="round" stroke-linejoin="round"/>
<path d="M21.1113 16.0529V8.05288C21.111 7.70216 21.0184 7.35769 20.8429 7.05404C20.6673 6.7504 20.4151 6.49824 20.1113 6.32288L13.1113 2.32288C12.8073 2.14734 12.4624 2.05493 12.1113 2.05493C11.7603 2.05493 11.4154 2.14734 11.1113 2.32288L4.11133 6.32288C3.80759 6.49824 3.55531 6.7504 3.37979 7.05404C3.20427 7.35769 3.11169 7.70216 3.11133 8.05288V16.0529C3.11169 16.4036 3.20427 16.7481 3.37979 17.0517C3.55531 17.3554 3.80759 17.6075 4.11133 17.7829L11.1113 21.7829C11.4154 21.9584 11.7603 22.0508 12.1113 22.0508C12.4624 22.0508 12.8073 21.9584 13.1113 21.7829L20.1113 17.7829C20.4151 17.6075 20.6673 17.3554 20.8429 17.0517C21.0184 16.7481 21.111 16.4036 21.1113 16.0529Z" stroke="#ACB4B4" stroke-width="2" stroke-linecap="round" stroke-linejoin="round"/>
<path d="M3.38184 7.01294L12.1118 12.0629L20.8418 7.01294" stroke="#ACB4B4" stroke-width="2" stroke-linecap="round" stroke-linejoin="round"/>
<path d="M12.1113 22.133V12.053" stroke="#ACB4B4" stroke-width="2" stroke-linecap="round" stroke-linejoin="round"/>
</svg>
