<svg width="40" height="40" viewBox="0 0 40 40" fill="none" xmlns="http://www.w3.org/2000/svg">
<g filter="url(#filter0_d_6378_17705)">
<circle cx="20" cy="18" r="16" fill="white"/>
<circle cx="20" cy="18" r="15.5" stroke="#F6F8F8"/>
</g>
<g clip-path="url(#clip0_6378_17705)">
<g clip-path="url(#clip1_6378_17705)">
<path d="M12.2773 12.9413H13.944H27.2773" stroke="#EB4242" stroke-width="1.5" stroke-linecap="round" stroke-linejoin="round"/>
<path d="M16.4453 12.9413V11.2746C16.4453 10.8326 16.6209 10.4086 16.9335 10.0961C17.246 9.78352 17.67 9.60793 18.112 9.60793H21.4453C21.8873 9.60793 22.3113 9.78352 22.6238 10.0961C22.9364 10.4086 23.112 10.8326 23.112 11.2746V12.9413M25.612 12.9413V24.6079C25.612 25.05 25.4364 25.4739 25.1238 25.7864C24.8113 26.099 24.3873 26.2746 23.9453 26.2746H15.612C15.17 26.2746 14.746 26.099 14.4335 25.7864C14.1209 25.4739 13.9453 25.05 13.9453 24.6079V12.9413H25.612Z" stroke="#EB4242" stroke-width="1.5" stroke-linecap="round" stroke-linejoin="round"/>
<path d="M18.1094 17.1079V22.1079" stroke="#EB4242" stroke-width="1.5" stroke-linecap="round" stroke-linejoin="round"/>
<path d="M21.4453 17.1079V22.1079" stroke="#EB4242" stroke-width="1.5" stroke-linecap="round" stroke-linejoin="round"/>
</g>
</g>
<defs>
<filter id="filter0_d_6378_17705" x="0" y="0" width="40" height="40" filterUnits="userSpaceOnUse" color-interpolation-filters="sRGB">
<feFlood flood-opacity="0" result="BackgroundImageFix"/>
<feColorMatrix in="SourceAlpha" type="matrix" values="0 0 0 0 0 0 0 0 0 0 0 0 0 0 0 0 0 0 127 0" result="hardAlpha"/>
<feOffset dy="2"/>
<feGaussianBlur stdDeviation="2"/>
<feComposite in2="hardAlpha" operator="out"/>
<feColorMatrix type="matrix" values="0 0 0 0 0.133333 0 0 0 0 0.156863 0 0 0 0 0.192157 0 0 0 0.12 0"/>
<feBlend mode="normal" in2="BackgroundImageFix" result="effect1_dropShadow_6378_17705"/>
<feBlend mode="normal" in="SourceGraphic" in2="effect1_dropShadow_6378_17705" result="shape"/>
</filter>
<clipPath id="clip0_6378_17705">
<rect width="20" height="20" fill="white" transform="translate(10 8)"/>
</clipPath>
<clipPath id="clip1_6378_17705">
<rect width="20" height="20" fill="white" transform="translate(9.77734 7.94125)"/>
</clipPath>
</defs>
</svg>
