<svg width="16" height="12" viewBox="0 0 16 12" fill="none" xmlns="http://www.w3.org/2000/svg">
<mask id="mask0_5714_5412" style="mask-type:alpha" maskUnits="userSpaceOnUse" x="0" y="0" width="16" height="12">
<rect width="16" height="12" fill="white"/>
</mask>
<g mask="url(#mask0_5714_5412)">
<path fill-rule="evenodd" clip-rule="evenodd" d="M0 0V12H16V0H0Z" fill="#F7FCFF"/>
<mask id="mask1_5714_5412" style="mask-type:alpha" maskUnits="userSpaceOnUse" x="0" y="0" width="16" height="12">
<path fill-rule="evenodd" clip-rule="evenodd" d="M0 0V12H16V0H0Z" fill="white"/>
</mask>
<g mask="url(#mask1_5714_5412)">
<path fill-rule="evenodd" clip-rule="evenodd" d="M7.8936 9.28567C9.60172 9.28567 10.9864 7.86764 10.9864 6.11842C10.9864 4.3692 9.60172 2.95117 7.8936 2.95117C6.18549 2.95117 4.80078 4.3692 4.80078 6.11842C4.80078 7.86764 6.18549 9.28567 7.8936 9.28567Z" fill="#3D58DB"/>
<mask id="mask2_5714_5412" style="mask-type:alpha" maskUnits="userSpaceOnUse" x="4" y="2" width="7" height="8">
<path fill-rule="evenodd" clip-rule="evenodd" d="M7.8936 9.28567C9.60172 9.28567 10.9864 7.86764 10.9864 6.11842C10.9864 4.3692 9.60172 2.95117 7.8936 2.95117C6.18549 2.95117 4.80078 4.3692 4.80078 6.11842C4.80078 7.86764 6.18549 9.28567 7.8936 9.28567Z" fill="white"/>
</mask>
<g mask="url(#mask2_5714_5412)">
<path fill-rule="evenodd" clip-rule="evenodd" d="M11.0947 6.36102C11.0947 6.36102 10.9211 4.86756 9.63538 4.78649C8.3497 4.70541 8.00303 5.8817 7.92884 6.19334C7.85465 6.50498 7.66687 7.33633 6.31319 7.33633C4.95951 7.33633 4.8374 5.22239 4.8374 5.22239V2.72974H11.0947V6.36102Z" fill="#E31D1C"/>
</g>
<path fill-rule="evenodd" clip-rule="evenodd" d="M3.64991 1.02612L4.10739 1.43989L1.98727 3.91584L1.52979 3.50208L3.64991 1.02612ZM4.40441 1.6957L4.86189 2.10947L2.81776 4.54955L2.36028 4.13579L4.40441 1.6957ZM5.61293 2.78729L5.15545 2.37353L3.10564 4.83213L3.56312 5.24589L5.61293 2.78729Z" fill="#272727"/>
<path d="M4.10739 1.43989L4.16436 1.48867L4.21184 1.43322L4.1577 1.38426L4.10739 1.43989ZM3.64991 1.02612L3.70022 0.970499L3.64307 0.918807L3.59294 0.977342L3.64991 1.02612ZM1.98727 3.91584L1.93696 3.97146L1.99411 4.02315L2.04423 3.96462L1.98727 3.91584ZM1.52979 3.50208L1.47282 3.45329L1.42534 3.50874L1.47948 3.5577L1.52979 3.50208ZM4.86189 2.10947L4.91938 2.15763L4.96575 2.10228L4.9122 2.05384L4.86189 2.10947ZM4.40441 1.6957L4.45472 1.64008L4.39694 1.58782L4.34692 1.64754L4.40441 1.6957ZM2.81776 4.54955L2.76745 4.60517L2.82523 4.65743L2.87525 4.59771L2.81776 4.54955ZM2.36028 4.13579L2.30279 4.08762L2.25642 4.14297L2.30997 4.19141L2.36028 4.13579ZM5.15545 2.37353L5.20576 2.31791L5.14785 2.26553L5.09784 2.3255L5.15545 2.37353ZM5.61293 2.78729L5.67053 2.83532L5.71666 2.77999L5.66324 2.73167L5.61293 2.78729ZM3.10564 4.83213L3.04803 4.7841L3.0019 4.83943L3.05533 4.88776L3.10564 4.83213ZM3.56312 5.24589L3.51281 5.30152L3.57072 5.3539L3.62072 5.29392L3.56312 5.24589ZM4.1577 1.38426L3.70022 0.970499L3.5996 1.08175L4.05709 1.49551L4.1577 1.38426ZM2.04423 3.96462L4.16436 1.48867L4.05043 1.3911L1.9303 3.86706L2.04423 3.96462ZM1.47948 3.5577L1.93696 3.97146L2.03757 3.86021L1.58009 3.44645L1.47948 3.5577ZM3.59294 0.977342L1.47282 3.45329L1.58675 3.55086L3.70688 1.0749L3.59294 0.977342ZM4.9122 2.05384L4.45472 1.64008L4.3541 1.75133L4.81158 2.16509L4.9122 2.05384ZM2.87525 4.59771L4.91938 2.15763L4.8044 2.0613L2.76027 4.50139L2.87525 4.59771ZM2.30997 4.19141L2.76745 4.60517L2.86807 4.49392L2.41059 4.08016L2.30997 4.19141ZM4.34692 1.64754L2.30279 4.08762L2.41777 4.18395L4.4619 1.74386L4.34692 1.64754ZM5.10514 2.42915L5.56262 2.84292L5.66324 2.73167L5.20576 2.31791L5.10514 2.42915ZM3.16324 4.88016L5.21305 2.42156L5.09784 2.3255L3.04803 4.7841L3.16324 4.88016ZM3.61343 5.19027L3.15594 4.77651L3.05533 4.88776L3.51281 5.30152L3.61343 5.19027ZM5.55532 2.73927L3.50551 5.19787L3.62072 5.29392L5.67053 2.83532L5.55532 2.73927Z" fill="#272727"/>
<path fill-rule="evenodd" clip-rule="evenodd" d="M12.293 1.02612L11.8355 1.43989L13.9556 3.91584L14.4131 3.50208L12.293 1.02612ZM11.5385 1.6957L11.081 2.10947L13.1251 4.54955L13.5826 4.13579L11.5385 1.6957ZM10.3299 2.78729L10.7874 2.37353L12.8372 4.83213L12.3798 5.24589L10.3299 2.78729Z" fill="#272727"/>
<path d="M11.8355 1.43989L11.7785 1.48867L11.731 1.43322L11.7852 1.38426L11.8355 1.43989ZM12.293 1.02612L12.2426 0.970499L12.2998 0.918807L12.3499 0.977342L12.293 1.02612ZM13.9556 3.91584L14.0059 3.97146L13.9488 4.02315L13.8986 3.96462L13.9556 3.91584ZM14.4131 3.50208L14.4701 3.45329L14.5175 3.50874L14.4634 3.5577L14.4131 3.50208ZM11.081 2.10947L11.0235 2.15763L10.9771 2.10228L11.0307 2.05384L11.081 2.10947ZM11.5385 1.6957L11.4882 1.64008L11.5459 1.58782L11.596 1.64754L11.5385 1.6957ZM13.1251 4.54955L13.1754 4.60517L13.1176 4.65743L13.0676 4.59771L13.1251 4.54955ZM13.5826 4.13579L13.6401 4.08762L13.6865 4.14297L13.6329 4.19141L13.5826 4.13579ZM10.7874 2.37353L10.7371 2.31791L10.795 2.26553L10.845 2.3255L10.7874 2.37353ZM10.3299 2.78729L10.2723 2.83532L10.2262 2.77999L10.2796 2.73167L10.3299 2.78729ZM12.8372 4.83213L12.8948 4.7841L12.941 4.83943L12.8875 4.88776L12.8372 4.83213ZM12.3798 5.24589L12.4301 5.30152L12.3722 5.3539L12.3221 5.29392L12.3798 5.24589ZM11.7852 1.38426L12.2426 0.970499L12.3433 1.08175L11.8858 1.49551L11.7852 1.38426ZM13.8986 3.96462L11.7785 1.48867L11.8924 1.3911L14.0126 3.86706L13.8986 3.96462ZM14.4634 3.5577L14.0059 3.97146L13.9053 3.86021L14.3628 3.44645L14.4634 3.5577ZM12.3499 0.977342L14.4701 3.45329L14.3561 3.55086L12.236 1.0749L12.3499 0.977342ZM11.0307 2.05384L11.4882 1.64008L11.5888 1.75133L11.1313 2.16509L11.0307 2.05384ZM13.0676 4.59771L11.0235 2.15763L11.1385 2.0613L13.1826 4.50139L13.0676 4.59771ZM13.6329 4.19141L13.1754 4.60517L13.0748 4.49392L13.5323 4.08016L13.6329 4.19141ZM11.596 1.64754L13.6401 4.08762L13.5251 4.18395L11.481 1.74386L11.596 1.64754ZM10.8377 2.42915L10.3803 2.84292L10.2796 2.73167L10.7371 2.31791L10.8377 2.42915ZM12.7796 4.88016L10.7298 2.42156L10.845 2.3255L12.8948 4.7841L12.7796 4.88016ZM12.3294 5.19027L12.7869 4.77651L12.8875 4.88776L12.4301 5.30152L12.3294 5.19027ZM10.3875 2.73927L12.4374 5.19787L12.3221 5.29392L10.2723 2.83532L10.3875 2.73927Z" fill="#272727"/>
<path fill-rule="evenodd" clip-rule="evenodd" d="M3.64991 11.2458L4.10739 10.8321L1.98727 8.35613L1.52979 8.7699L3.64991 11.2458ZM4.40441 10.5763L4.86189 10.1625L2.81776 7.72242L2.36028 8.13619L4.40441 10.5763ZM5.61293 9.48468L5.15545 9.89844L3.10564 7.43984L3.56312 7.02608L5.61293 9.48468Z" fill="#272727"/>
<path d="M4.10739 10.8321L4.16436 10.7833L4.21184 10.8387L4.1577 10.8877L4.10739 10.8321ZM3.64991 11.2458L3.70022 11.3015L3.64307 11.3532L3.59294 11.2946L3.64991 11.2458ZM1.98727 8.35613L1.93696 8.30051L1.99411 8.24882L2.04423 8.30735L1.98727 8.35613ZM1.52979 8.7699L1.47282 8.81868L1.42534 8.76324L1.47948 8.71427L1.52979 8.7699ZM4.86189 10.1625L4.91938 10.1143L4.96575 10.1697L4.9122 10.2181L4.86189 10.1625ZM4.40441 10.5763L4.45472 10.6319L4.39694 10.6841L4.34692 10.6244L4.40441 10.5763ZM2.81776 7.72242L2.76745 7.6668L2.82523 7.61455L2.87525 7.67426L2.81776 7.72242ZM2.36028 8.13619L2.30279 8.18435L2.25642 8.129L2.30997 8.08056L2.36028 8.13619ZM5.15545 9.89844L5.20576 9.95407L5.14785 10.0064L5.09784 9.94647L5.15545 9.89844ZM5.61293 9.48468L5.67053 9.43665L5.71666 9.49198L5.66324 9.5403L5.61293 9.48468ZM3.10564 7.43984L3.04803 7.48787L3.0019 7.43254L3.05533 7.38422L3.10564 7.43984ZM3.56312 7.02608L3.51281 6.97045L3.57072 6.91808L3.62072 6.97805L3.56312 7.02608ZM4.1577 10.8877L3.70022 11.3015L3.5996 11.1902L4.05709 10.7765L4.1577 10.8877ZM2.04423 8.30735L4.16436 10.7833L4.05043 10.8809L1.9303 8.40492L2.04423 8.30735ZM1.47948 8.71427L1.93696 8.30051L2.03757 8.41176L1.58009 8.82552L1.47948 8.71427ZM3.59294 11.2946L1.47282 8.81868L1.58675 8.72112L3.70688 11.1971L3.59294 11.2946ZM4.9122 10.2181L4.45472 10.6319L4.3541 10.5206L4.81158 10.1069L4.9122 10.2181ZM2.87525 7.67426L4.91938 10.1143L4.8044 10.2107L2.76027 7.77059L2.87525 7.67426ZM2.30997 8.08056L2.76745 7.6668L2.86807 7.77805L2.41059 8.19181L2.30997 8.08056ZM4.34692 10.6244L2.30279 8.18435L2.41777 8.08802L4.4619 10.5281L4.34692 10.6244ZM5.10514 9.84282L5.56262 9.42905L5.66324 9.5403L5.20576 9.95407L5.10514 9.84282ZM3.16324 7.39181L5.21305 9.85041L5.09784 9.94647L3.04803 7.48787L3.16324 7.39181ZM3.61343 7.0817L3.15594 7.49547L3.05533 7.38422L3.51281 6.97045L3.61343 7.0817ZM5.55532 9.53271L3.50551 7.07411L3.62072 6.97805L5.67053 9.43665L5.55532 9.53271Z" fill="#272727"/>
<path fill-rule="evenodd" clip-rule="evenodd" d="M12.293 11.2458L11.8355 10.8321L13.9556 8.35613L14.4131 8.7699L12.293 11.2458ZM11.5385 10.5763L11.081 10.1625L13.1251 7.72242L13.5826 8.13619L11.5385 10.5763ZM10.3299 9.48468L10.7874 9.89844L12.8372 7.43984L12.3798 7.02608L10.3299 9.48468Z" fill="#272727"/>
<path d="M11.8355 10.8321L11.7785 10.7833L11.731 10.8387L11.7852 10.8877L11.8355 10.8321ZM12.293 11.2458L12.2426 11.3015L12.2998 11.3532L12.3499 11.2946L12.293 11.2458ZM13.9556 8.35613L14.0059 8.30051L13.9488 8.24882L13.8986 8.30735L13.9556 8.35613ZM14.4131 8.7699L14.4701 8.81868L14.5175 8.76324L14.4634 8.71427L14.4131 8.7699ZM11.081 10.1625L11.0235 10.1143L10.9771 10.1697L11.0307 10.2181L11.081 10.1625ZM11.5385 10.5763L11.4882 10.6319L11.5459 10.6841L11.596 10.6244L11.5385 10.5763ZM13.1251 7.72242L13.1754 7.6668L13.1176 7.61455L13.0676 7.67426L13.1251 7.72242ZM13.5826 8.13619L13.6401 8.18435L13.6865 8.129L13.6329 8.08056L13.5826 8.13619ZM10.7874 9.89844L10.7371 9.95407L10.795 10.0064L10.845 9.94647L10.7874 9.89844ZM10.3299 9.48468L10.2723 9.43665L10.2262 9.49198L10.2796 9.5403L10.3299 9.48468ZM12.8372 7.43984L12.8948 7.48787L12.941 7.43254L12.8875 7.38422L12.8372 7.43984ZM12.3798 7.02608L12.4301 6.97045L12.3722 6.91808L12.3221 6.97805L12.3798 7.02608ZM11.7852 10.8877L12.2426 11.3015L12.3433 11.1902L11.8858 10.7765L11.7852 10.8877ZM13.8986 8.30735L11.7785 10.7833L11.8924 10.8809L14.0126 8.40492L13.8986 8.30735ZM14.4634 8.71427L14.0059 8.30051L13.9053 8.41176L14.3628 8.82552L14.4634 8.71427ZM12.3499 11.2946L14.4701 8.81868L14.3561 8.72112L12.236 11.1971L12.3499 11.2946ZM11.0307 10.2181L11.4882 10.6319L11.5888 10.5206L11.1313 10.1069L11.0307 10.2181ZM13.0676 7.67426L11.0235 10.1143L11.1385 10.2107L13.1826 7.77059L13.0676 7.67426ZM13.6329 8.08056L13.1754 7.6668L13.0748 7.77805L13.5323 8.19181L13.6329 8.08056ZM11.596 10.6244L13.6401 8.18435L13.5251 8.08802L11.481 10.5281L11.596 10.6244ZM10.8377 9.84282L10.3803 9.42905L10.2796 9.5403L10.7371 9.95407L10.8377 9.84282ZM12.7796 7.39181L10.7298 9.85041L10.845 9.94647L12.8948 7.48787L12.7796 7.39181ZM12.3294 7.0817L12.7869 7.49547L12.8875 7.38422L12.4301 6.97045L12.3294 7.0817ZM10.3875 9.53271L12.4374 7.07411L12.3221 6.97805L10.2723 9.43665L10.3875 9.53271Z" fill="#272727"/>
</g>
</g>
<rect width="16" height="12" fill="url(#paint0_linear_5714_5412)" style="mix-blend-mode:overlay"/>
<defs>
<linearGradient id="paint0_linear_5714_5412" x1="8" y1="0" x2="8" y2="12" gradientUnits="userSpaceOnUse">
<stop stop-color="white" stop-opacity="0.7"/>
<stop offset="1" stop-opacity="0.3"/>
</linearGradient>
</defs>
</svg>
